<svg width="120" height="120" xmlns="http://www.w3.org/2000/svg">
 <g>
  <title>Layer 1</title>
  <polygon stroke="purple" rx="100" opacity="0.9" stroke-width="0" id="svg_1" fill-rule="evenodd" fill="lime" points="118.20065307617188,58.97306442260742 0.20240142454218457,48.52318572998047 114.61379245177113,79.55187225341797 7.265181324411856,28.887083053588867 104.29312949258838,97.6515884399414 20.534636743160718,12.877345085144043 88.47519753659208,111.08198547363281 38.41748132126281,2.4314823150634766 69.07436941653532,118.23042297363281 58.749738214130275,-1.1988893747329712 48.425046485613166,118.23042297363281 79.08196862682371,2.4314823150634766 29.02422971420242,111.08198547363281 96.96480185627979,12.877345085144043 13.206312889734136,97.6515884399414 110.23423646917763,28.887083053588867 2.885622268226726,79.55187225341797 117.29699822303519,48.52318572998047 -0.701249941250154,58.97306442260742 117.29699822303519,69.42292022705078 2.885622268226726,38.394256591796875 110.23423646917763,89.05903625488281 13.206312889734136,20.29452896118164 96.96480185627979,105.06880950927734 29.02422971420242,6.864162921905518 79.08196862682371,115.51465606689453 48.425046485613166,-0.2842678129673004 58.749738214130275,119.1450424194336 69.07436941653532,-0.2842678129673004 38.41748132126281,115.51465606689453 88.47519753659208,6.864162921905518 20.534636743160718,105.06880950927734 104.29312949258838,20.29452896118164 7.265181324411856,89.05903625488281 114.61379245177113,38.394256591796875 0.20240142454218457,69.42292022705078 "/>
 </g>

</svg>