<svg width="300" height="300" xmlns="http://www.w3.org/2000/svg">

 <g>
  <title>Layer 1</title>
  <polygon id="svg_1" fill-rule="evenodd" stroke-width="3" stroke="purple" fill="lime" points="301,150 3.2799999713897705,123.94999694824219 291.95001220703125,201.3000030517578 21.100000381469727,75 265.9100036621094,246.4199981689453 54.58000183105469,35.09000015258789 226,279.8999938964844 99.69999694824219,9.050000190734863 177.0500030517578,297.7200012207031 151,0 124.94999694824219,297.7200012207031 202.3000030517578,9.050000190734863 76,279.8999938964844 247.4199981689453,35.09000015258789 36.09000015258789,246.4199981689453 280.8999938964844,75 10.050000190734863,201.3000030517578 298.7200012207031,123.94999694824219 1,150 298.7200012207031,176.0500030517578 10.050000190734863,98.69999694824219 280.8999938964844,225 36.09000015258789,53.58000183105469 247.4199981689453,264.9100036621094 76,20.100000381469727 202.3000030517578,290.95001220703125 124.94999694824219,2.2799999713897705 151,300 177.0500030517578,2.2799999713897705 99.69999694824219,290.95001220703125 226,20.100000381469727 54.58000183105469,264.9100036621094 265.9100036621094,53.58000183105469 21.100000381469727,225 291.95001220703125,98.69999694824219 3.2799999713897705,176.0500030517578 "/>
 </g>
</svg>